<svg xmlns="http://www.w3.org/2000/svg" viewBox="0 0 500 500"><g id="freepik--background-complete--inject-7"><path d="M249.35,367.19H456v-207ZM418,329.35H342.77L418.13,254Z" style="fill:#dbdbdb"></path><path d="M449.67,166.59l-.92.92L249.35,367.19H456v-207ZM418,329.36H342.77L418.14,254Z" style="fill:#ebebeb"></path><rect x="448.93" y="168.95" width="7.1" height="0.99" style="fill:#c7c7c7"></rect><rect x="451.84" y="173.55" width="4.19" height="0.99" style="fill:#c7c7c7"></rect><rect x="451.84" y="178.14" width="4.19" height="0.99" style="fill:#c7c7c7"></rect><rect x="451.84" y="182.74" width="4.19" height="0.99" style="fill:#c7c7c7"></rect><rect x="451.84" y="187.34" width="4.19" height="0.99" style="fill:#c7c7c7"></rect><rect x="451.84" y="191.93" width="4.19" height="1" style="fill:#c7c7c7"></rect><rect x="451.84" y="196.53" width="4.19" height="0.99" style="fill:#c7c7c7"></rect><rect x="448.93" y="201.13" width="7.1" height="0.99" style="fill:#c7c7c7"></rect><rect x="451.84" y="205.74" width="4.19" height="0.99" style="fill:#c7c7c7"></rect><rect x="451.84" y="210.32" width="4.19" height="0.99" style="fill:#c7c7c7"></rect><rect x="451.84" y="214.93" width="4.19" height="0.99" style="fill:#c7c7c7"></rect><rect x="451.84" y="219.53" width="4.19" height="0.99" style="fill:#c7c7c7"></rect><rect x="451.84" y="224.12" width="4.19" height="0.99" style="fill:#c7c7c7"></rect><rect x="451.84" y="228.72" width="4.19" height="0.99" style="fill:#c7c7c7"></rect><rect x="448.93" y="233.32" width="7.1" height="0.99" style="fill:#c7c7c7"></rect><rect x="451.84" y="237.91" width="4.19" height="0.99" style="fill:#c7c7c7"></rect><rect x="451.84" y="242.51" width="4.19" height="0.99" style="fill:#c7c7c7"></rect><rect x="451.84" y="247.11" width="4.19" height="0.99" style="fill:#c7c7c7"></rect><rect x="451.84" y="251.7" width="4.19" height="1" style="fill:#c7c7c7"></rect><rect x="451.84" y="256.3" width="4.19" height="0.99" style="fill:#c7c7c7"></rect><rect x="451.84" y="260.91" width="4.19" height="0.99" style="fill:#c7c7c7"></rect><rect x="448.93" y="265.51" width="7.1" height="0.99" style="fill:#c7c7c7"></rect><rect x="451.84" y="270.09" width="4.19" height="0.99" style="fill:#c7c7c7"></rect><rect x="451.84" y="274.7" width="4.19" height="0.99" style="fill:#c7c7c7"></rect><rect x="451.84" y="279.3" width="4.19" height="0.99" style="fill:#c7c7c7"></rect><rect x="451.84" y="283.89" width="4.19" height="0.99" style="fill:#c7c7c7"></rect><rect x="451.84" y="288.49" width="4.19" height="0.99" style="fill:#c7c7c7"></rect><rect x="451.84" y="293.09" width="4.19" height="0.99" style="fill:#c7c7c7"></rect><rect x="448.93" y="297.68" width="7.1" height="1" style="fill:#c7c7c7"></rect><rect x="451.84" y="302.28" width="4.19" height="0.99" style="fill:#c7c7c7"></rect><rect x="451.84" y="306.88" width="4.19" height="0.99" style="fill:#c7c7c7"></rect><rect x="451.84" y="311.49" width="4.19" height="0.99" style="fill:#c7c7c7"></rect><rect x="451.84" y="316.07" width="4.19" height="0.99" style="fill:#c7c7c7"></rect><rect x="451.84" y="320.68" width="4.19" height="0.99" style="fill:#c7c7c7"></rect><rect x="451.84" y="325.28" width="4.19" height="0.99" style="fill:#c7c7c7"></rect><rect x="448.93" y="329.87" width="7.1" height="0.99" style="fill:#c7c7c7"></rect><rect x="451.84" y="334.47" width="4.19" height="0.99" style="fill:#c7c7c7"></rect><rect x="451.84" y="339.07" width="4.19" height="0.99" style="fill:#c7c7c7"></rect><rect x="451.84" y="343.66" width="4.19" height="0.99" style="fill:#c7c7c7"></rect><rect x="451.84" y="348.26" width="4.19" height="0.99" style="fill:#c7c7c7"></rect><rect x="451.84" y="352.86" width="4.19" height="0.99" style="fill:#c7c7c7"></rect><rect x="451.84" y="357.45" width="4.19" height="1" style="fill:#c7c7c7"></rect><path d="M433.81,205.37l5.51-8.87-2.72-1.68a2.49,2.49,0,0,1-1.15-2.34,13.54,13.54,0,0,0,0-1.56,2.47,2.47,0,0,1,1.3-2.25l2.82-1.51L434.67,178l-2.82,1.51a2.47,2.47,0,0,1-2.59-.17,14,14,0,0,0-1.33-.82,2.49,2.49,0,0,1-1.31-2.25l.1-3.2-10.43-.32-.1,3.21a2.49,2.49,0,0,1-1.45,2.16c-.24.1-.46.22-.69.34s-.45.25-.67.38a2.47,2.47,0,0,1-2.59,0l-2.74-1.69-5.5,8.87,2.72,1.69a2.49,2.49,0,0,1,1.15,2.34,13.31,13.31,0,0,0-.05,1.55,2.47,2.47,0,0,1-1.3,2.25l-2.82,1.51,4.94,9.21L410,203a2.47,2.47,0,0,1,2.59.17q.64.44,1.32.81a2.47,2.47,0,0,1,1.31,2.25l-.09,3.21,10.43.32.1-3.2a2.5,2.5,0,0,1,1.45-2.16l.7-.34c.22-.13.45-.25.67-.39a2.48,2.48,0,0,1,2.6,0ZM425,198.78a8.55,8.55,0,1,1,3.5-11.58A8.54,8.54,0,0,1,425,198.78Z" style="fill:#dbdbdb"></path><path d="M158.81,122.21l-3.66-6.34L153.21,117a1.73,1.73,0,0,1-1.82-.06,8,8,0,0,0-.95-.54,1.75,1.75,0,0,1-1-1.55V112.6h-7.32v2.24a1.73,1.73,0,0,1-1,1.55,8.92,8.92,0,0,0-.95.54,1.73,1.73,0,0,1-1.82.06l-1.94-1.12-3.66,6.34,1.95,1.12a1.74,1.74,0,0,1,.85,1.62c0,.18,0,.35,0,.54s0,.36,0,.53a1.72,1.72,0,0,1-.84,1.61l-2,1.13,3.66,6.34,1.95-1.13a1.75,1.75,0,0,1,1.82.07,8.78,8.78,0,0,0,.94.54,1.73,1.73,0,0,1,1,1.55v2.24h7.32v-2.24a1.75,1.75,0,0,1,1-1.55,7.9,7.9,0,0,0,.94-.54,1.77,1.77,0,0,1,1.83-.07l1.94,1.13,3.66-6.34-1.95-1.12A1.74,1.74,0,0,1,156,126c0-.18,0-.36,0-.54s0-.36,0-.54a1.74,1.74,0,0,1,.85-1.62Zm-7,3.28a6,6,0,1,1-6-6A6,6,0,0,1,151.81,125.49Z" style="fill:#dbdbdb"></path><path d="M101.08,251.59a28.5,28.5,0,1,0,28.49,28.49A28.49,28.49,0,0,0,101.08,251.59Zm0,41.8a13.31,13.31,0,1,1,13.31-13.31A13.3,13.3,0,0,1,101.08,293.39Z" style="fill:#ebebeb"></path><polygon points="106.56 252.77 95.6 252.77 96.21 245.02 105.95 245.02 106.56 252.77" style="fill:#ebebeb"></polygon><polygon points="85.7 256.47 77.95 264.21 72.9 258.3 79.79 251.41 85.7 256.47" style="fill:#ebebeb"></polygon><polygon points="73.57 273.82 73.57 284.78 65.81 284.17 65.81 274.43 73.57 273.82" style="fill:#ebebeb"></polygon><polygon points="77.26 294.68 85.01 302.43 79.09 307.48 72.2 300.59 77.26 294.68" style="fill:#ebebeb"></polygon><polygon points="94.61 306.81 105.57 306.81 104.97 314.57 95.22 314.57 94.61 306.81" style="fill:#ebebeb"></polygon><polygon points="115.47 303.12 123.22 295.38 128.27 301.29 121.38 308.18 115.47 303.12" style="fill:#ebebeb"></polygon><polygon points="127.61 285.76 127.61 274.81 135.36 275.41 135.36 285.16 127.61 285.76" style="fill:#ebebeb"></polygon><polygon points="123.92 264.91 116.17 257.16 122.08 252.11 128.97 259 123.92 264.91" style="fill:#ebebeb"></polygon><path d="M372.31,67.29A28.49,28.49,0,1,0,400.8,95.78,28.48,28.48,0,0,0,372.31,67.29Zm0,41.79a13.31,13.31,0,1,1,13.31-13.3A13.3,13.3,0,0,1,372.31,109.08Z" style="fill:#ebebeb"></path><polygon points="377.79 68.47 366.83 68.47 367.44 60.71 377.18 60.71 377.79 68.47" style="fill:#ebebeb"></polygon><polygon points="356.93 72.16 349.19 79.91 344.13 73.99 351.02 67.1 356.93 72.16" style="fill:#ebebeb"></polygon><polygon points="344.8 89.52 344.8 100.47 337.04 99.87 337.04 90.12 344.8 89.52" style="fill:#ebebeb"></polygon><polygon points="348.49 110.37 356.24 118.12 350.32 123.17 343.43 116.28 348.49 110.37" style="fill:#ebebeb"></polygon><polygon points="365.85 122.51 376.8 122.51 376.2 130.26 366.45 130.26 365.85 122.51" style="fill:#ebebeb"></polygon><polygon points="386.7 118.81 394.45 111.07 399.5 116.98 392.61 123.87 386.7 118.81" style="fill:#ebebeb"></polygon><polygon points="398.84 101.46 398.84 90.5 406.59 91.11 406.59 100.85 398.84 101.46" style="fill:#ebebeb"></polygon><polygon points="395.14 80.6 387.4 72.86 393.31 67.8 400.2 74.69 395.14 80.6" style="fill:#ebebeb"></polygon><rect x="59.98" width="1" height="91.87" style="fill:#c7c7c7"></rect><rect x="55.79" y="86.56" width="9.39" height="10.16" style="fill:#dbdbdb"></rect><path d="M79.69,129.16H41.27c.77-14.62,7.74-38,19.21-38S78.93,114.54,79.69,129.16Z" style="fill:#dbdbdb"></path><rect x="111.75" width="1" height="66.77" style="fill:#c7c7c7"></rect><rect x="107.56" y="61.47" width="9.39" height="10.16" style="fill:#dbdbdb"></rect><path d="M131.47,104.06H93c.78-14.61,7.75-38,19.21-38S130.7,89.45,131.47,104.06Z" style="fill:#dbdbdb"></path></g><g id="freepik--Shadow--inject-7"><ellipse cx="250" cy="437.76" rx="195.98" ry="21.13" style="fill:#ebebeb"></ellipse></g><g id="freepik--Floor--inject-7"><polygon points="38.37 367.14 91.28 366.9 144.18 366.81 250 366.64 355.82 366.81 408.73 366.9 461.63 367.14 408.73 367.39 355.82 367.48 250 367.64 144.18 367.47 91.28 367.38 38.37 367.14" style="fill:#263238"></polygon></g><g id="freepik--light-bulb--inject-7"><path d="M288.11,338.9l.06,12.81-.06-.06,12.35,0h.11v.11l.07,15.73v.18h-.19l-12.35.06.24-.24,0,12.82-.26-.27h6.54v.28l0,15.72v.3h-9.36l.28-.18a30.66,30.66,0,0,1-14.78,14.77,31.17,31.17,0,0,1-10.24,2.78c-1.77.17-3.55.16-5.3.16H244.73a52.56,52.56,0,0,1-5.31-.15,31.3,31.3,0,0,1-10.26-2.75,31.85,31.85,0,0,1-8.73-6.08,31.35,31.35,0,0,1-6.14-8.69l.4.25-9.06,0h-.46V396l0-15.72v-.48h6.75l-.49.49V367.44l.49.49-12.35,0h-.47v-.47l0-15.73v-.45h.45l12.35,0-.42.43,0-12.81.4.41-12.35,0h-.39v-.39l0-15.73v-.37h.37l50.46.08,50.46.16h.13v.13l-.07,15.73V339h-.06Zm0,0,12.35-.06,0,.06-.07-15.73.12.12-50.46.16-50.46.08.36-.36,0,15.73-.38-.39,12.35,0h.41v.41l0,12.81v.42h-.43l-12.35,0,.44-.44,0,15.73-.47-.47,12.35,0h.49v13.8h-6.75l.48-.48,0,15.72-.45-.46,9.06,0H215l.12.25a30.84,30.84,0,0,0,5.94,8.47,31.55,31.55,0,0,0,8.48,5.94,30.7,30.7,0,0,0,10,2.71c1.72.17,3.46.16,5.23.16h10.54c1.77,0,3.51,0,5.24-.14a30.6,30.6,0,0,0,10-2.69A29.93,29.93,0,0,0,285,395.85l.08-.18h9.26l-.3.3,0-15.72.27.27h-6.53v-.26l0-12.82v-.24h.24l12.35.06-.18.18.07-15.73.11.11-12.35-.05h-.06v-.05Z" style="fill:#263238"></path><circle cx="250" cy="216.56" r="112.49" transform="translate(-79.91 240.21) rotate(-45)" style="fill:#fff"></circle><path d="M250,329.55a113,113,0,1,1,113-113A113.12,113.12,0,0,1,250,329.55Zm0-225a112,112,0,1,0,112,112A112.14,112.14,0,0,0,250,104.56Z" style="fill:#263238"></path><path d="M362.49,216.56a112.43,112.43,0,0,1-56.79,97.75c-8.33-2.68-14.53-8.95-20.74-15.22-4.47-4.52,6.43-6.37-.18-8.76,6.43-6.37,14.92-19.24,4-17.39-6.61-2.4-10.72,10.61-19.56,6S258,263.22,249.11,258.57l-8.58,8.49c-6.62-2.41-11.28-15.68-13.42-13.56-10.9,1.84-17.24,12.59-25.81,21.07-4.48-4.51-11.09-6.9-9-13.41,40.36-45.06,80-92.29,121.78-137.1A112.37,112.37,0,0,1,362.49,216.56Z" style="fill:#92E3A9"></path><path d="M261.65,336h-2V264.61c-2.7,0-7.24.05-9.27.05h-.76c-2,0-6.56,0-9.27-.05V336h-2V262.58l1,0c2.2,0,7.46.06,10.25.06h.76c2.79,0,8.05,0,10.25-.06l1,0Z" style="fill:#263238"></path><path d="M259.65,264.62V241.2c0-8.65,4.78-14.87,12.18-15.85,7-.92,16,3.57,19.21,15.59,2.08,7.72,1.78,13-.92,16.57-4.23,5.6-14,6.84-29.46,7.09Zm14-37.38a11.17,11.17,0,0,0-1.54.1c-6.34.83-10.44,6.27-10.44,13.86v21.38c13.9-.27,23.24-1.47,26.87-6.27,2.3-3.06,2.49-7.77.59-14.85C286.44,231.49,279.51,227.24,273.63,227.24Z" style="fill:#263238"></path><path d="M240.35,264.62l-1,0c-15.45-.25-25.22-1.49-29.44-7.09-2.71-3.58-3-8.85-.94-16.57,3.23-12,12.23-16.51,19.23-15.59,7.39,1,12.17,7.2,12.17,15.85Zm-14-37.38c-5.88,0-12.81,4.25-15.49,14.22-1.89,7.08-1.7,11.79.6,14.85,3.63,4.8,13,6,26.87,6.27V241.2c0-7.59-4.1-13-10.44-13.86A11.17,11.17,0,0,0,226.37,227.24Z" style="fill:#263238"></path><rect x="226.41" y="306.46" width="47.18" height="24.69" rx="9.42" style="fill:#a6a6a6"></rect><path d="M169.25,136.81a113.06,113.06,0,0,1,36.94-24.63,117.13,117.13,0,0,1,43.56-8.8,115.56,115.56,0,0,1,43.71,8.15,110.78,110.78,0,0,1,37.18,24.39A112,112,0,0,1,355.2,173a118.29,118.29,0,0,1,.38,87.51,110.22,110.22,0,0,1-61.41,62A115.68,115.68,0,0,1,250.42,331a117.12,117.12,0,0,1-43.71-8.54A112.49,112.49,0,0,1,144.81,261a115.37,115.37,0,0,1-.14-87.22A112.06,112.06,0,0,1,169.25,136.81Zm0,0a112.08,112.08,0,0,0-24.47,37,115.16,115.16,0,0,0,.38,87,112.09,112.09,0,0,0,61.78,61,116.56,116.56,0,0,0,43.48,8.37,114.92,114.92,0,0,0,43.42-8.48,110.71,110.71,0,0,0,60.92-61.54,117.51,117.51,0,0,0-.14-87,110.11,110.11,0,0,0-61.3-61.38,115.16,115.16,0,0,0-43.56-8.24,116.82,116.82,0,0,0-43.52,8.66A113.12,113.12,0,0,0,169.25,136.81Z" style="fill:#263238"></path><path d="M363.49,217.56a112.93,112.93,0,0,0-8.82-43.49A116.74,116.74,0,0,0,330,137.17a115.31,115.31,0,0,0-36.63-25A110.47,110.47,0,0,0,250,103.31a111.6,111.6,0,0,0-43.36,8.94,117.58,117.58,0,0,0-61.58,61.39,110.67,110.67,0,0,0-.44,86.59,114.92,114.92,0,0,0,24.7,36.7A116.57,116.57,0,0,0,206,321.75a111.94,111.94,0,0,0,86.82.56A115.09,115.09,0,0,0,354.62,261,112.07,112.07,0,0,0,363.49,217.56Zm0,0a112,112,0,0,1-8.76,43.52A115.44,115.44,0,0,1,293,322.66a112.49,112.49,0,0,1-87.21-.33,117,117,0,0,1-37-24.87,115.71,115.71,0,0,1-25-36.89,110.14,110.14,0,0,1,.45-87.28,118.28,118.28,0,0,1,62.14-61.61,110.58,110.58,0,0,1,87.14.17A115.44,115.44,0,0,1,330.2,137a117,117,0,0,1,24.59,37A113.2,113.2,0,0,1,363.49,217.56Z" style="fill:#263238"></path><path d="M249,332.67a114.78,114.78,0,0,0,44.11-8.94,118.44,118.44,0,0,0,37.42-25,116.75,116.75,0,0,0,25.34-37.16,111.88,111.88,0,0,0,9-44,113.06,113.06,0,0,0-9.07-44,119.19,119.19,0,0,0-62.26-62.46,112.27,112.27,0,0,0-87.83-.45,116.75,116.75,0,0,0-37.22,25.06,118.3,118.3,0,0,0-25.18,37.19,113.57,113.57,0,0,0-.56,88.05,116.78,116.78,0,0,0,62.15,62.69A113.56,113.56,0,0,0,249,332.67Zm0,0a113.84,113.84,0,0,1-44.14-8.88,117.08,117.08,0,0,1-62.44-62.66,114,114,0,0,1,.33-88.45A118.85,118.85,0,0,1,168,135.21a117.38,117.38,0,0,1,37.41-25.34,111.74,111.74,0,0,1,88.52.46,120,120,0,0,1,62.48,63,112.1,112.1,0,0,1-.17,88.37,117.29,117.29,0,0,1-25.5,37.19,118.69,118.69,0,0,1-37.55,24.93A114.66,114.66,0,0,1,249,332.67Z" style="fill:#263238"></path><path d="M213.08,323.87h73.84a0,0,0,0,1,0,0V383a29.52,29.52,0,0,1-29.52,29.52H242.6A29.52,29.52,0,0,1,213.08,383V323.87A0,0,0,0,1,213.08,323.87Z" style="fill:#455a64"></path><rect x="201.11" y="323.87" width="97.79" height="15.45" style="fill:#37474f"></rect><rect x="201.11" y="351.9" width="97.79" height="15.45" style="fill:#37474f"></rect><rect x="207.01" y="379.94" width="85.98" height="15.45" style="fill:#37474f"></rect><path d="M343.43,218.91a5,5,0,0,1-5-5c0-52.54-51.67-82.89-52.19-83.19a5,5,0,1,1,5-8.67,132.51,132.51,0,0,1,28.55,23.64c18.76,20.38,28.67,44,28.67,68.22A5,5,0,0,1,343.43,218.91Z" style="fill:#fff"></path><circle cx="342.21" cy="238.09" r="5.97" style="fill:#fff"></circle></g><g id="freepik--Measures--inject-7"><path d="M202.19,420.52l11.95-.23,12-.13,23.9-.11,23.9.11c8,.08,15.94.17,23.91.36v.06c-8,.19-15.94.28-23.91.36l-23.9.11-23.9-.11-12-.14-11.95-.22Z" style="fill:#263238"></path><polygon points="205.5 424.64 206.19 423.91 202.57 420.55 206.19 417.19 205.5 416.46 201.11 420.55 205.5 424.64" style="fill:#263238"></polygon><polygon points="294.5 424.64 293.81 423.91 297.43 420.55 293.81 417.19 294.5 416.46 298.89 420.55 294.5 424.64" style="fill:#263238"></polygon><polygon points="138.59 89.2 166.44 88.96 194.29 88.83 250 88.71 305.7 88.83 333.56 88.96 361.41 89.2 361.41 89.22 333.56 89.46 305.7 89.6 250 89.71 194.29 89.6 166.44 89.46 138.59 89.22 138.59 89.2" style="fill:#263238"></polygon><polygon points="141.9 93.3 142.59 92.57 138.97 89.21 142.59 85.86 141.9 85.12 137.5 89.21 141.9 93.3" style="fill:#263238"></polygon><polygon points="358.1 93.3 357.42 92.57 361.03 89.21 357.42 85.86 358.1 85.12 362.5 89.21 358.1 93.3" style="fill:#263238"></polygon><path d="M178.51,411.45c-.19-7.2-.28-14.41-.36-21.62L178,368.2l.11-21.62c.08-7.21.17-14.42.36-21.63h.06c.19,7.21.28,14.42.36,21.63L179,368.2l-.11,21.63c-.08,7.21-.17,14.42-.36,21.62Z" style="fill:#263238"></path><polygon points="182.63 408.14 181.9 407.46 178.54 411.07 175.18 407.46 174.45 408.14 178.54 412.54 182.63 408.14" style="fill:#263238"></polygon><polygon points="182.63 328.27 181.9 328.95 178.54 325.34 175.18 328.95 174.45 328.27 178.54 323.87 182.63 328.27" style="fill:#263238"></polygon><polygon points="368.83 411.45 368.59 373.17 368.5 334.88 368.34 258.3 368.5 181.72 368.59 143.44 368.83 105.15 368.84 105.15 369.09 143.44 369.17 181.72 369.33 258.3 369.17 334.88 369.08 373.17 368.84 411.45 368.83 411.45" style="fill:#263238"></polygon><polygon points="372.93 408.14 372.19 407.46 368.84 411.07 365.48 407.46 364.75 408.14 368.84 412.54 372.93 408.14" style="fill:#263238"></polygon><polygon points="372.93 108.46 372.19 109.14 368.84 105.53 365.48 109.14 364.75 108.46 368.84 104.06 372.93 108.46" style="fill:#263238"></polygon><path d="M222.65,323.87c-5.19.2-10.38.3-15.57.38s-10.38.08-15.57.12-10.39,0-15.58-.12l-7.78-.14c-2.6-.08-5.19-.13-7.79-.24,2.6-.12,5.19-.16,7.79-.25l7.78-.14c5.19-.08,10.39-.07,15.58-.11s10.38,0,15.57.12S217.46,323.66,222.65,323.87Z" style="fill:#263238"></path><path d="M241.85,412.54c-6.79.21-13.58.3-20.37.38s-13.58.08-20.37.12l-20.38-.12-10.18-.14c-3.4-.08-6.79-.13-10.19-.24,3.4-.11,6.79-.16,10.19-.25l10.18-.14,20.38-.11c6.79,0,13.58,0,20.37.12S235.06,412.33,241.85,412.54Z" style="fill:#263238"></path><path d="M201.11,323.87c.2,9.21.3,18.43.38,27.64l.12,27.65-.12,27.64-.14,13.83-.24,13.82-.25-13.82-.14-13.83-.11-27.64.11-27.65C200.8,342.3,200.9,333.08,201.11,323.87Z" style="fill:#263238"></path><path d="M298.89,323.87c.21,9.21.31,18.43.39,27.64l.11,27.65-.11,27.64-.14,13.83-.25,13.82-.24-13.82-.14-13.83-.12-27.64.12-27.65C298.59,342.3,298.69,333.08,298.89,323.87Z" style="fill:#263238"></path><path d="M255,412.54c11.14-.21,22.28-.3,33.42-.38l33.43-.12,33.42.11,16.72.14,16.71.25-16.71.24-16.72.14-33.42.12-33.43-.12C277.31,412.84,266.17,412.75,255,412.54Z" style="fill:#263238"></path><path d="M255,104.06c11.14-.2,22.28-.3,33.42-.38l33.43-.11,33.42.11,16.72.14,16.71.24-16.71.25-16.72.14-33.42.11-33.43-.11C277.31,104.37,266.17,104.27,255,104.06Z" style="fill:#263238"></path><polygon points="137.5 412.54 137.26 370.77 137.17 329.01 137.01 245.47 137.17 161.94 137.26 120.17 137.5 78.41 137.75 120.17 137.84 161.94 138 245.47 137.84 329.01 137.75 370.77 137.5 412.54" style="fill:#263238"></polygon><polygon points="362.5 412.54 362.25 370.77 362.16 329.01 362 245.47 362.16 161.94 362.25 120.17 362.5 78.41 362.74 120.17 362.83 161.94 362.99 245.47 362.83 329.01 362.74 370.77 362.5 412.54" style="fill:#263238"></polygon></g><g id="freepik--Tools--inject-7"><path d="M389,351.1s4.41,14.7,9.64,29.71,9.89,49.49,8.91,50.38S395,398.56,391.6,383.25s-5.75-31-5.75-31Z" style="fill:#92E3A9"></path><polygon points="389.07 350.73 392.57 360.71 387.01 362.06 385.34 351.78 389.07 350.73" style="fill:#dbdbdb"></polygon><path d="M389.08,350.73a8.35,8.35,0,0,0-1.32-7.5c-2.43-3.47-1.72-6.17-1.72-6.17s-6.26,8-.7,14.72Z" style="fill:#455a64"></path><path d="M386.09,336.66c.32.51-.33,3,.84,5s-4.57,4.92-4.1,1.95C383.37,340.25,385.51,335.73,386.09,336.66Z" style="fill:#92E3A9"></path><path d="M416.42,359.7s-4.26,11.9-9.21,24-10.27,40.27-9.51,41,11.77-26.29,15.19-38.74S419,360.75,419,360.75Z" style="fill:#a6a6a6"></path><polygon points="416.38 359.39 413.07 367.45 417.58 368.81 419.4 360.42 416.38 359.39" style="fill:#dbdbdb"></polygon><path d="M416.37,359.4c.48-6.64,5.75-12,5.75-12s2.14,7.79-2.72,13.06Z" style="fill:#455a64"></path><path d="M403.32,344.1s1.68,12.53,4,25.41,1.63,41.53.72,42.13-6-28.17-6.76-41.06-.66-26-.66-26Z" style="fill:#37474f"></path><polygon points="403.42 343.81 404.98 352.38 400.28 352.76 400.25 344.18 403.42 343.81" style="fill:#dbdbdb"></polygon><path d="M400.25,344.18s3-.3,3.17-.37a72.1,72.1,0,0,0,2.23-8.94c-.18-.24-10.12,1.16-10.07,2.09S400.25,344.18,400.25,344.18Z" style="fill:#455a64"></path><rect x="383.64" y="391.54" width="35.05" height="44.13" rx="4.38" style="fill:#455a64"></rect><rect x="388.06" y="384.57" width="26.2" height="6.97" style="fill:#455a64"></rect><path d="M389.67,391.38c6.09-.3,21-.31,23,0a0,0,0,0,1,0,.09,160,160,0,0,1-23,0A.07.07,0,0,1,389.67,391.38Z" style="fill:#263238"></path></g></svg>